<svg width="120" height="120" viewBox="0 0 120 120" fill="none" xmlns="http://www.w3.org/2000/svg">
<g id="Frame 2" clip-path="url(#clip0)">
<rect width="120" height="120" fill="white"/>
<g id="Record">
<g id="Group">
<path id="Vector" d="M116.5 61.5C116.5 92.4279 91.4279 117.5 60.5 117.5C29.5721 117.5 4.5 92.4279 4.5 61.5C4.5 30.5721 29.5721 5.5 60.5 5.5C91.4279 5.5 116.5 30.5721 116.5 61.5Z" fill="#ACE1EA" stroke="#FFFFF8" stroke-linejoin="round"/>
<path id="Vector_2" d="M60.5 118C91.7041 118 117 92.7041 117 61.5C117 30.2959 91.7041 5 60.5 5C29.2959 5 4 30.2959 4 61.5C4 92.7041 29.2959 118 60.5 118Z" stroke="#FFFFF8" stroke-width="6" stroke-miterlimit="10" stroke-linejoin="round"/>
</g>
<path id="Vector_3" d="M59.9302 108.813C85.9948 108.813 107.124 87.6833 107.124 61.6187C107.124 35.5541 85.9948 14.4246 59.9302 14.4246C33.8656 14.4246 12.7361 35.5541 12.7361 61.6187C12.7361 87.6833 33.8656 108.813 59.9302 108.813Z" fill="#D7EDDF"/>
<path id="Vector_4" d="M60.3338 87.7796C74.8477 87.7796 86.6134 76.0138 86.6134 61.5C86.6134 46.9862 74.8477 35.2204 60.3338 35.2204C45.82 35.2204 34.0542 46.9862 34.0542 61.5C34.0542 76.0138 45.82 87.7796 60.3338 87.7796Z" fill="#D6CECD"/>
<path id="Vector_5" d="M59.9303 70.5447C64.86 70.5447 68.8563 66.5484 68.8563 61.6187C68.8563 56.689 64.86 52.6926 59.9303 52.6926C55.0006 52.6926 51.0042 56.689 51.0042 61.6187C51.0042 66.5484 55.0006 70.5447 59.9303 70.5447Z" fill="#948F90"/>
<path id="Polygon 1" d="M60.0252 5.07121L61.6699 54.39H58.3805L60.0252 5.07121Z" fill="#948F90"/>
</g>
<g id="HeadPhones">
<path id="Vector_6" d="M38.4294 90.3032C139.346 95.3122 -45.8695 101.318 96.52 104.594" stroke="#4C4C4B" stroke-width="5" stroke-miterlimit="10"/>
<path id="Vector_7" fill-rule="evenodd" clip-rule="evenodd" d="M24.3044 90.4931C24.1145 90.5168 23.9008 90.5168 23.7109 90.5168C19.1292 90.5168 15.4258 86.5523 15.4258 81.6857C15.4258 78.291 17.23 75.3235 19.8651 73.8517L24.3044 90.4931Z" fill="#CB9833" stroke="#4C4C4B" stroke-width="0.75" stroke-miterlimit="10"/>
<path id="Vector_8" d="M23.6634 64.7832L22.5951 65.1156C20.601 65.709 19.4378 67.9406 20.0075 70.0771L26.1323 93.0332C26.7021 95.146 28.7912 96.4042 30.7853 95.787L36.6964 93.9828C38.6905 93.3656 39.8538 91.1578 39.284 89.0212L33.1355 66.0651C32.5657 63.9523 30.4767 62.6941 28.4825 63.3114L26.892 63.7861L23.6634 64.7832Z" fill="#365528" stroke="#524343" stroke-width="4" stroke-miterlimit="10"/>
<path id="Vector_9" d="M97.1134 65.1156L96.0451 64.7832V61.7208C96.6386 61.2223 97.0185 60.249 97.0185 59.5843C97.0185 58.8958 96.8998 58.6347 96.6861 58.2548C97.6357 57.2815 98.2292 55.5723 97.9918 53.317V53.2933C97.9443 52.771 97.8731 52.2725 97.8019 51.7502C95.3567 35.1088 81.2554 22.3607 64.2342 22.3607C61.7178 22.3607 57.9907 22.3607 55.4981 22.3607C38.4769 22.3607 24.3756 35.1088 21.9304 51.7502C21.8592 52.2487 21.788 52.771 21.7405 53.2933V53.317C21.5031 55.5485 22.0966 57.2815 23.0462 58.2548C22.8325 58.6584 22.7138 59.1095 22.7138 59.5843C22.7138 60.4626 23.0937 61.2223 23.6872 61.7208V64.7832L26.9395 63.8099V61.6971C27.5092 61.1985 27.8416 60.4389 27.8416 59.608C27.8416 59.0857 27.6991 58.5872 27.4617 58.1599C28.53 57.1153 29.4796 55.2874 29.9306 52.4861C29.9544 52.2725 30.0019 52.0826 30.0256 51.8927V51.8689C32.3521 39.7143 42.8687 30.5508 55.4743 30.5508C57.967 30.5508 61.7178 30.5508 64.2105 30.5508C76.8399 30.5508 87.3327 39.7143 89.6592 51.8689V51.8927C89.7067 52.0826 89.7304 52.2962 89.7779 52.4861C90.2527 55.2874 91.1785 57.1153 92.2468 58.1599C91.9857 58.5872 91.867 58.9195 91.867 59.608C91.867 60.2964 92.2231 61.1985 92.7691 61.6971V63.8099L97.5645 65.3055C97.422 65.2343 97.2558 65.163 97.1134 65.1156Z" fill="#4C4C4B"/>
<path id="Vector_10" fill-rule="evenodd" clip-rule="evenodd" d="M95.3804 90.4931C95.5703 90.5168 95.784 90.5168 95.9977 90.5168C100.579 90.5168 104.283 86.5523 104.283 81.6857C104.283 78.291 102.479 75.3235 99.8435 73.8517L95.3804 90.4931Z" fill="#CB9833" stroke="#4C4C4B" stroke-width="0.5" stroke-miterlimit="10"/>
<path id="Vector_11" d="M97.5882 65.3055L92.7928 63.8099L91.2023 63.3351C89.2082 62.7179 87.1191 63.9761 86.5493 66.0889L80.4246 89.045C79.8548 91.1578 81.018 93.3893 83.0122 94.0065L88.9233 95.8107C90.9174 96.4042 93.0065 95.1698 93.5762 93.0569L99.701 70.1009C100.2 68.1305 99.2737 66.0889 97.5882 65.3055Z" fill="#285F00" stroke="#524343" stroke-width="4" stroke-miterlimit="10"/>
</g>
</g>
<defs>
<clipPath id="clip0">
<rect width="120" height="120" fill="white"/>
</clipPath>
</defs>
</svg>
