<svg width="350" height="120" viewBox="0 0 350 120" fill="none" xmlns="http://www.w3.org/2000/svg">
<g id="Frame 2" clip-path="url(#clip0)">
<g id="Smood">
<path d="M155.496 85.384C154.472 85.384 153.352 85.32 152.136 85.192C150.92 85.064 149.864 84.904 148.968 84.712V81.784C151.208 82.136 153.048 82.312 154.488 82.312C155.512 82.312 156.328 82.232 156.936 82.072C157.576 81.912 158.104 81.608 158.52 81.16C158.904 80.776 159.16 80.184 159.288 79.384C159.416 78.552 159.48 77.432 159.48 76.024C159.48 74.104 159.416 72.792 159.288 72.088C159.192 71.384 158.936 70.888 158.52 70.6C158.136 70.28 157.384 70.008 156.264 69.784L151.704 68.872C150.744 68.68 150.024 68.248 149.544 67.576C149.064 66.904 148.76 66.04 148.632 64.984C148.504 63.928 148.44 62.504 148.44 60.712C148.44 57.448 149.016 55.112 150.168 53.704C151.352 52.296 153.304 51.592 156.024 51.592C157.272 51.592 158.44 51.672 159.528 51.832C160.616 51.96 161.384 52.104 161.832 52.264V55.144C161.288 55.016 160.552 54.904 159.624 54.808C158.696 54.712 157.784 54.664 156.888 54.664C155.704 54.664 154.776 54.792 154.104 55.048C153.432 55.272 152.92 55.64 152.568 56.152C152.248 56.664 152.04 57.272 151.944 57.976C151.848 58.68 151.8 59.592 151.8 60.712C151.8 62.216 151.848 63.304 151.944 63.976C152.072 64.648 152.28 65.128 152.568 65.416C152.888 65.672 153.416 65.864 154.152 65.992L158.232 66.856C159.384 67.112 160.28 67.464 160.92 67.912C161.56 68.328 162.056 69.08 162.408 70.168C162.6 70.616 162.712 71.24 162.744 72.04C162.808 72.84 162.84 73.992 162.84 75.496C162.84 77.96 162.632 79.896 162.216 81.304C161.8 82.68 161.064 83.704 160.008 84.376C158.984 85.048 157.48 85.384 155.496 85.384ZM187.53 70.456C187.53 68.152 187.45 66.504 187.29 65.512C187.13 64.52 186.826 63.864 186.378 63.544C185.93 63.192 185.194 63.016 184.17 63.016C182.922 63.016 182.026 63.352 181.482 64.024C180.938 64.664 180.602 65.592 180.474 66.808C180.346 67.992 180.282 69.88 180.282 72.472V85H177.114V70.456C177.114 68.152 177.034 66.504 176.874 65.512C176.714 64.52 176.41 63.864 175.962 63.544C175.546 63.192 174.826 63.016 173.802 63.016C172.554 63.016 171.642 63.368 171.066 64.072C170.522 64.776 170.186 65.752 170.058 67C169.93 68.216 169.866 70.04 169.866 72.472V85H166.698V60.52H169.53L169.722 63.88H170.01C170.33 62.696 170.874 61.784 171.642 61.144C172.41 60.472 173.546 60.136 175.05 60.136C176.618 60.136 177.754 60.424 178.458 61C179.194 61.576 179.69 62.536 179.946 63.88H180.282C180.602 62.664 181.146 61.736 181.914 61.096C182.714 60.456 183.866 60.136 185.37 60.136C186.874 60.136 187.994 60.44 188.73 61.048C189.498 61.624 190.01 62.536 190.266 63.784C190.554 65.032 190.698 66.824 190.698 69.16V85H187.53V70.456ZM237.092 85.384C235.396 85.384 234.116 85.048 233.252 84.376C232.42 83.672 231.828 82.44 231.476 80.68C231.156 78.92 230.996 76.28 230.996 72.76C230.996 69.272 231.156 66.664 231.476 64.936C231.796 63.176 232.372 61.944 233.204 61.24C234.068 60.504 235.348 60.136 237.044 60.136C238.388 60.136 239.444 60.408 240.212 60.952C240.98 61.496 241.524 62.344 241.844 63.496H242.084V49.336H245.252V85H242.42L242.228 81.64H241.988C241.668 83.08 241.076 84.072 240.212 84.616C239.348 85.128 238.308 85.384 237.092 85.384ZM238.148 82.504C239.172 82.504 239.972 82.28 240.548 81.832C241.124 81.352 241.508 80.568 241.7 79.48C241.86 78.552 241.956 77.56 241.988 76.504C242.052 75.448 242.084 74.04 242.084 72.28C242.084 69.528 241.972 67.576 241.748 66.424C241.524 65.144 241.124 64.264 240.548 63.784C239.972 63.272 239.124 63.016 238.004 63.016C236.82 63.016 235.972 63.224 235.46 63.64C234.948 64.056 234.596 64.92 234.404 66.232C234.244 67.544 234.164 69.72 234.164 72.76C234.164 75.8 234.26 77.976 234.452 79.288C234.644 80.6 234.996 81.464 235.508 81.88C236.052 82.296 236.932 82.504 238.148 82.504Z" fill="#4C4C4B"/>
<path d="M202.008 85.384C199.8 85.384 198.2 85.048 197.208 84.376C196.216 83.704 195.56 82.536 195.24 80.872C194.952 79.208 194.808 76.52 194.808 72.808C194.808 69.096 194.952 66.392 195.24 64.696C195.56 63 196.216 61.816 197.208 61.144C198.2 60.472 199.8 60.136 202.008 60.136C204.248 60.136 205.848 60.472 206.808 61.144C207.8 61.816 208.44 63 208.728 64.696C209.048 66.36 209.208 69.064 209.208 72.808C209.208 76.52 209.048 79.208 208.728 80.872C208.44 82.536 207.8 83.704 206.808 84.376C205.848 85.048 204.248 85.384 202.008 85.384ZM202.008 82.6C203.32 82.6 204.248 82.376 204.792 81.928C205.336 81.48 205.672 80.632 205.8 79.384C205.96 78.136 206.04 75.944 206.04 72.808C206.04 69.64 205.96 67.432 205.8 66.184C205.672 64.936 205.336 64.088 204.792 63.64C204.248 63.16 203.32 62.92 202.008 62.92C200.696 62.92 199.768 63.16 199.224 63.64C198.712 64.088 198.376 64.952 198.216 66.232C198.056 67.48 197.976 69.672 197.976 72.808C197.976 75.912 198.056 78.104 198.216 79.384C198.376 80.632 198.712 81.48 199.224 81.928C199.768 82.376 200.696 82.6 202.008 82.6ZM220.102 85.384C217.894 85.384 216.294 85.048 215.302 84.376C214.31 83.704 213.654 82.536 213.334 80.872C213.046 79.208 212.902 76.52 212.902 72.808C212.902 69.096 213.046 66.392 213.334 64.696C213.654 63 214.31 61.816 215.302 61.144C216.294 60.472 217.894 60.136 220.102 60.136C222.342 60.136 223.942 60.472 224.902 61.144C225.894 61.816 226.534 63 226.822 64.696C227.142 66.36 227.302 69.064 227.302 72.808C227.302 76.52 227.142 79.208 226.822 80.872C226.534 82.536 225.894 83.704 224.902 84.376C223.942 85.048 222.342 85.384 220.102 85.384ZM220.102 82.6C221.414 82.6 222.342 82.376 222.886 81.928C223.43 81.48 223.766 80.632 223.894 79.384C224.054 78.136 224.134 75.944 224.134 72.808C224.134 69.64 224.054 67.432 223.894 66.184C223.766 64.936 223.43 64.088 222.886 63.64C222.342 63.16 221.414 62.92 220.102 62.92C218.79 62.92 217.862 63.16 217.318 63.64C216.806 64.088 216.47 64.952 216.31 66.232C216.15 67.48 216.07 69.672 216.07 72.808C216.07 75.912 216.15 78.104 216.31 79.384C216.47 80.632 216.806 81.48 217.318 81.928C217.862 82.376 218.79 82.6 220.102 82.6Z" fill="#CB9833"/>
</g>
<path id="SPOTIFY PLAYER" d="M173.124 103.096C172.868 103.096 172.588 103.08 172.284 103.048C171.98 103.016 171.716 102.976 171.492 102.928V102.196C172.052 102.284 172.512 102.328 172.872 102.328C173.128 102.328 173.332 102.308 173.484 102.268C173.644 102.228 173.776 102.152 173.88 102.04C173.976 101.944 174.04 101.796 174.072 101.596C174.104 101.388 174.12 101.108 174.12 100.756C174.12 100.276 174.104 99.948 174.072 99.772C174.048 99.596 173.984 99.472 173.88 99.4C173.784 99.32 173.596 99.252 173.316 99.196L172.176 98.968C171.936 98.92 171.756 98.812 171.636 98.644C171.516 98.476 171.44 98.26 171.408 97.996C171.376 97.732 171.36 97.376 171.36 96.928C171.36 96.112 171.504 95.528 171.792 95.176C172.088 94.824 172.576 94.648 173.256 94.648C173.568 94.648 173.86 94.668 174.132 94.708C174.404 94.74 174.596 94.776 174.708 94.816V95.536C174.572 95.504 174.388 95.476 174.156 95.452C173.924 95.428 173.696 95.416 173.472 95.416C173.176 95.416 172.944 95.448 172.776 95.512C172.608 95.568 172.48 95.66 172.392 95.788C172.312 95.916 172.26 96.068 172.236 96.244C172.212 96.42 172.2 96.648 172.2 96.928C172.2 97.304 172.212 97.576 172.236 97.744C172.268 97.912 172.32 98.032 172.392 98.104C172.472 98.168 172.604 98.216 172.788 98.248L173.808 98.464C174.096 98.528 174.32 98.616 174.48 98.728C174.64 98.832 174.764 99.02 174.852 99.292C174.9 99.404 174.928 99.56 174.936 99.76C174.952 99.96 174.96 100.248 174.96 100.624C174.96 101.24 174.908 101.724 174.804 102.076C174.7 102.42 174.516 102.676 174.252 102.844C173.996 103.012 173.62 103.096 173.124 103.096ZM177.425 94.744H179.381C179.893 94.744 180.273 94.852 180.521 95.068C180.769 95.284 180.925 95.572 180.989 95.932C181.061 96.284 181.097 96.756 181.097 97.348C181.097 97.916 181.061 98.38 180.989 98.74C180.917 99.1 180.757 99.392 180.509 99.616C180.261 99.84 179.885 99.952 179.381 99.952H178.265V103H177.425V94.744ZM179.273 99.184C179.569 99.184 179.785 99.12 179.921 98.992C180.065 98.864 180.157 98.676 180.197 98.428C180.245 98.18 180.269 97.82 180.269 97.348C180.269 96.868 180.249 96.508 180.209 96.268C180.169 96.02 180.077 95.832 179.933 95.704C179.789 95.576 179.569 95.512 179.273 95.512H178.265V99.184H179.273ZM185.342 103.096C184.702 103.096 184.242 102.988 183.962 102.772C183.69 102.556 183.514 102.172 183.434 101.62C183.354 101.068 183.314 100.152 183.314 98.872C183.314 97.592 183.354 96.676 183.434 96.124C183.514 95.572 183.69 95.188 183.962 94.972C184.242 94.756 184.702 94.648 185.342 94.648C185.982 94.648 186.438 94.756 186.71 94.972C186.99 95.188 187.17 95.572 187.25 96.124C187.33 96.676 187.37 97.592 187.37 98.872C187.37 100.152 187.33 101.068 187.25 101.62C187.17 102.172 186.99 102.556 186.71 102.772C186.438 102.988 185.982 103.096 185.342 103.096ZM185.342 102.328C185.726 102.328 185.994 102.268 186.146 102.148C186.298 102.02 186.402 101.728 186.458 101.272C186.514 100.808 186.542 100.008 186.542 98.872C186.542 97.736 186.514 96.94 186.458 96.484C186.402 96.02 186.298 95.728 186.146 95.608C185.994 95.48 185.726 95.416 185.342 95.416C184.958 95.416 184.69 95.48 184.538 95.608C184.386 95.728 184.282 96.02 184.226 96.484C184.17 96.94 184.142 97.736 184.142 98.872C184.142 100.008 184.17 100.808 184.226 101.272C184.282 101.728 184.386 102.02 184.538 102.148C184.69 102.268 184.958 102.328 185.342 102.328ZM190.768 103V95.524H189.304V94.744H193.06V95.524H191.596V103H190.768ZM195.363 103V94.744H196.191V103H195.363ZM199.028 103V94.744H202.028V95.512H199.868V98.608H201.788V99.376H199.868V103H199.028ZM205.426 103V99.796L203.71 94.744H204.562L205.834 98.776H205.906L207.154 94.744H207.982L206.266 99.796V103H205.426ZM213.274 94.744H215.23C215.742 94.744 216.122 94.852 216.37 95.068C216.618 95.284 216.774 95.572 216.838 95.932C216.91 96.284 216.946 96.756 216.946 97.348C216.946 97.916 216.91 98.38 216.838 98.74C216.766 99.1 216.606 99.392 216.358 99.616C216.11 99.84 215.734 99.952 215.23 99.952H214.114V103H213.274V94.744ZM215.122 99.184C215.418 99.184 215.634 99.12 215.77 98.992C215.914 98.864 216.006 98.676 216.046 98.428C216.094 98.18 216.118 97.82 216.118 97.348C216.118 96.868 216.098 96.508 216.058 96.268C216.018 96.02 215.926 95.832 215.782 95.704C215.638 95.576 215.418 95.512 215.122 95.512H214.114V99.184H215.122ZM219.319 103V94.744H220.159V102.22H222.223V103H219.319ZM227.596 103L227.128 100.708H225.208L224.752 103H223.912L225.604 94.744H226.756L228.436 103H227.596ZM226.204 95.848H226.132L225.328 99.964H227.008L226.204 95.848ZM231.259 103V99.796L229.543 94.744H230.395L231.667 98.776H231.739L232.987 94.744H233.815L232.099 99.796V103H231.259ZM235.909 103V94.744H239.053V95.512H236.749V98.44H238.765V99.208H236.749V102.232H239.053V103H235.909ZM244.521 103L243.645 99.712H243.453H242.349V103H241.509V94.744H243.513C244.025 94.744 244.405 94.848 244.653 95.056C244.901 95.256 245.061 95.528 245.133 95.872C245.205 96.208 245.241 96.66 245.241 97.228C245.241 97.844 245.189 98.34 245.085 98.716C244.981 99.092 244.757 99.36 244.413 99.52L245.385 103H244.521ZM243.417 98.956C243.713 98.956 243.929 98.896 244.065 98.776C244.209 98.656 244.301 98.48 244.341 98.248C244.381 98.016 244.401 97.676 244.401 97.228C244.401 96.78 244.381 96.444 244.341 96.22C244.301 95.988 244.209 95.812 244.065 95.692C243.929 95.572 243.713 95.512 243.417 95.512H242.349V98.956H243.417Z" fill="#285F00"/>
<g id="Record">
<g id="Group">
<path id="Vector" d="M136.5 62.5C136.5 93.4279 111.428 118.5 80.5 118.5C49.5721 118.5 24.5 93.4279 24.5 62.5C24.5 31.5721 49.5721 6.5 80.5 6.5C111.428 6.5 136.5 31.5721 136.5 62.5Z" fill="#ACE1EA" stroke="#FFFFF8" stroke-linejoin="round"/>
<path id="Vector_2" d="M80.5 119C111.704 119 137 93.7041 137 62.5C137 31.2959 111.704 6 80.5 6C49.2959 6 24 31.2959 24 62.5C24 93.7041 49.2959 119 80.5 119Z" stroke="#FFFFF8" stroke-width="6" stroke-miterlimit="10" stroke-linejoin="round"/>
</g>
<path id="Vector_3" d="M79.9302 109.813C105.995 109.813 127.124 88.6833 127.124 62.6187C127.124 36.5541 105.995 15.4246 79.9302 15.4246C53.8656 15.4246 32.7361 36.5541 32.7361 62.6187C32.7361 88.6833 53.8656 109.813 79.9302 109.813Z" fill="#D7EDDF"/>
<path id="Vector_4" d="M80.3338 88.7796C94.8477 88.7796 106.613 77.0138 106.613 62.5C106.613 47.9862 94.8477 36.2204 80.3338 36.2204C65.82 36.2204 54.0542 47.9862 54.0542 62.5C54.0542 77.0138 65.82 88.7796 80.3338 88.7796Z" fill="#D6CECD"/>
<path id="Vector_5" d="M79.9303 71.5447C84.86 71.5447 88.8563 67.5484 88.8563 62.6187C88.8563 57.689 84.86 53.6926 79.9303 53.6926C75.0005 53.6926 71.0042 57.689 71.0042 62.6187C71.0042 67.5484 75.0005 71.5447 79.9303 71.5447Z" fill="#948F90"/>
<path id="Polygon 1" d="M80.0252 6.07121L81.6699 55.39H78.3805L80.0252 6.07121Z" fill="#948F90"/>
</g>
<g id="HeadPhones">
<path id="Vector_6" d="M72.0952 97.9206C165.303 58.9123 0.791898 144.218 130.668 85.7584" stroke="#4C4C4B" stroke-width="5" stroke-miterlimit="10"/>
<path id="Vector_7" fill-rule="evenodd" clip-rule="evenodd" d="M59.4336 104.184C59.2725 104.288 59.0797 104.38 58.9084 104.462C54.7747 106.438 49.7236 104.458 47.6245 100.068C46.1603 97.0051 46.5081 93.5497 48.2507 91.0852L59.4336 104.184Z" fill="#CB9833" stroke="#4C4C4B" stroke-width="0.75" stroke-miterlimit="10"/>
<path id="Vector_8" d="M47.7661 81.2654L46.9456 82.026C45.4025 83.4216 45.3155 85.9366 46.7511 87.6184L62.1783 105.688C63.6037 107.348 66.0311 107.582 67.564 106.165L72.1188 101.988C73.6517 100.571 73.7489 98.0773 72.3133 96.3954L56.8647 78.3365C55.4393 76.676 53.0119 76.442 51.479 77.8589L50.2488 78.9733L47.7661 81.2654Z" fill="#365528" stroke="#524343" stroke-width="4" stroke-miterlimit="10"/>
<path id="Vector_9" d="M114.176 49.8847L113.069 50.0456L111.748 47.2827C112.068 46.577 111.991 45.535 111.704 44.9353C111.408 44.3142 111.188 44.1298 110.831 43.8793C111.268 42.5916 111.066 40.7935 109.879 38.8612L109.869 38.8398C109.601 38.3891 109.322 37.9701 109.032 37.5296C99.6484 23.5704 81.4278 18.1513 66.0713 25.4929C63.801 26.5782 60.4384 28.1858 58.1895 29.2609C42.833 36.6025 35.6094 54.186 40.5812 70.2545C40.7319 70.735 40.8929 71.2369 41.0754 71.7286L41.0856 71.75C41.8339 73.8657 43.1169 75.1732 44.3934 75.6417C44.3747 76.098 44.4621 76.5561 44.6669 76.9845C45.0458 77.7769 45.7161 78.2985 46.4666 78.4923L47.7875 81.2552L50.3019 78.9742L49.3906 77.0681C49.6896 76.3725 49.6618 75.5438 49.3034 74.7942C49.0781 74.323 48.7346 73.9347 48.3361 73.6516C48.8494 72.2484 48.9177 70.1897 48.1164 67.4678C48.0456 67.2648 48.0065 67.073 47.946 66.8914L47.9358 66.87C44.7922 54.9007 50.3279 42.0974 61.7007 36.6603C63.9495 35.5852 67.3335 33.9674 69.5824 32.8922C80.9766 27.4449 94.3957 31.1863 101.737 41.1488L101.747 41.1702C101.872 41.321 101.986 41.5036 102.11 41.6544C103.747 43.9769 105.371 45.2268 106.785 45.7084C106.734 46.2065 106.77 46.5576 107.067 47.1787C107.364 47.7998 108.074 48.4601 108.782 48.6744L109.693 50.5805L114.665 49.8615C114.506 49.8587 114.325 49.8661 114.176 49.8847Z" fill="#4C4C4B"/>
<path id="Vector_10" fill-rule="evenodd" clip-rule="evenodd" d="M123.558 73.5277C123.74 73.4672 123.933 73.3751 124.125 73.2829C128.259 71.3067 129.89 66.1326 127.791 61.742C126.327 58.6792 123.419 56.7802 120.407 56.5889L123.558 73.5277Z" fill="#CB9833" stroke="#4C4C4B" stroke-width="0.5" stroke-miterlimit="10"/>
<path id="Vector_11" d="M114.686 49.8512L109.715 50.5703L108.075 50.828C106.01 51.1312 104.668 53.1674 105.065 55.3193L109.441 78.672C109.838 80.824 111.85 82.3355 113.915 82.0322L120.026 81.1104C122.081 80.7857 123.434 78.771 123.036 76.619L118.661 53.2663C118.261 51.2736 116.545 49.831 114.686 49.8512Z" fill="#285F00" stroke="#524343" stroke-width="4" stroke-miterlimit="10"/>
</g>
</g>
<defs>
<clipPath id="clip0">
<rect width="350" height="120" fill="white"/>
</clipPath>
</defs>
</svg>
